<svg width="40" height="40" viewBox="0 0 40 40" fill="none" xmlns="http://www.w3.org/2000/svg">
<path fill-rule="evenodd" clip-rule="evenodd" d="M20 40C31.0457 40 40 31.0457 40 20C40 8.9543 31.0457 0 20 0C8.9543 0 0 8.9543 0 20C0 31.0457 8.9543 40 20 40ZM11.9737 28.7047C10.2303 26.6355 9 23.75 9 20C9 13.5 13.725 8 20 8C26.275 8 31 13.5 31 20C31 23.75 29.7697 26.6355 28.0263 28.7047C27.3026 29.6329 26.4539 29.875 25.6875 29.5313C24.9211 29.1875 24.3375 28.1562 24.3375 27.0313C24.3375 26.2969 24.4625 25.4375 24.6125 24.6406C24.7125 24.1302 24.8 23.6198 24.8 23.0469C24.8 21.0938 23.525 19.3125 21.5 19.3125C19.475 19.3125 18.2 21.0938 18.2 23.0469C18.2 23.6198 18.2875 24.1302 18.3875 24.6406C18.5375 25.4375 18.6625 26.2969 18.6625 27.0313C18.6625 28.1562 18.0789 29.1875 17.3125 29.5313C16.5461 29.875 15.6974 29.6329 14.9737 28.7047C14.35 29.6329 13.6625 29.875 13.05 29.5313C12.4375 29.1875 12 28.6719 11.9737 28.7047Z" fill="white"/>
</svg>